<svg width="16" height="15" viewBox="0 0 16 15" fill="none" xmlns="http://www.w3.org/2000/svg">
<path d="M14.0056 3.8136H11.5672C11.332 1.6704 9.96402 0 7.49202 0C5.06562 0 3.69762 1.7856 3.45042 3.8136H1.00482L0.00161777 14.5776C-0.00270272 14.6327 0.00540661 14.688 0.0253464 14.7395C0.0452862 14.791 0.0765468 14.8374 0.116818 14.8752C0.203308 14.9561 0.317561 15.0008 0.436018 15H14.5672C14.6879 15.0002 14.804 14.9538 14.8912 14.8704C14.9311 14.8315 14.9618 14.7841 14.9809 14.7318C15 14.6794 15.0071 14.6235 15.0016 14.568L14.0056 3.8136ZM7.49202 0.7872C9.08322 0.7872 10.4344 1.6416 10.6864 3.8136H4.33122C4.59762 1.6896 5.96562 0.7872 7.49202 0.7872ZM0.906418 14.2128L1.91202 4.5984H3.38322C3.36162 4.968 3.35202 5.34 3.35202 5.7024C3.36335 5.81035 3.41425 5.91028 3.49491 5.98292C3.57557 6.05555 3.68027 6.09575 3.78882 6.09575C3.89736 6.09575 4.00206 6.05555 4.08272 5.98292C4.16338 5.91028 4.21429 5.81035 4.22562 5.7024C4.22562 5.3088 4.23762 4.9416 4.25922 4.5984H10.7536C10.7704 4.9416 10.7824 5.3064 10.7824 5.7024C10.7937 5.81035 10.8447 5.91028 10.9253 5.98292C11.006 6.05555 11.1107 6.09575 11.2192 6.09575C11.3278 6.09575 11.4325 6.05555 11.5131 5.98292C11.5938 5.91028 11.6447 5.81035 11.656 5.7024C11.656 5.3304 11.6488 4.9608 11.6296 4.5984H13.084L14.0848 14.2128H0.906418Z" fill="#13161A"/>
</svg>
