<svg width="15" height="14" viewBox="0 0 15 14" fill="none" xmlns="http://www.w3.org/2000/svg">
<path d="M11.865 5.9277C11.8669 7.32875 11.3708 8.68487 10.4651 9.75386L13.8611 13.1498C13.9498 13.2448 13.9982 13.3705 13.996 13.5005C13.9938 13.6304 13.9412 13.7544 13.8493 13.8464C13.7574 13.9383 13.6334 13.9909 13.5034 13.9931C13.3735 13.9953 13.2477 13.9469 13.1528 13.8581L9.75684 10.4603C8.58932 11.4496 7.08434 11.9489 5.55701 11.8536C4.02967 11.7584 2.5984 11.076 1.56285 9.94925C0.527306 8.82253 -0.0322144 7.3389 0.00143428 5.80896C0.035083 4.27902 0.659292 2.82142 1.74337 1.74133L1.7723 1.7124C2.60452 0.89211 3.66061 0.336089 4.80788 0.1142C5.95514 -0.107688 7.1424 0.014456 8.22046 0.465284C9.29851 0.916111 10.2193 1.67551 10.867 2.64806C11.5148 3.6206 11.8607 4.76291 11.8612 5.93143L11.865 5.9277ZM9.42181 9.4123C10.3331 8.48797 10.843 7.24142 10.8407 5.94338C10.8383 4.64534 10.324 3.40063 9.40934 2.47958C8.49469 1.55854 7.25359 1.03553 5.95559 1.02416C4.6576 1.01279 3.40753 1.51396 2.47687 2.41884L2.45541 2.4431C1.53668 3.36816 1.02203 4.61964 1.02418 5.9234C1.02633 7.22717 1.54511 8.47694 2.46689 9.39896C3.38867 10.321 4.6383 10.8401 5.94206 10.8426C7.24583 10.8451 8.49744 10.3308 9.42275 9.4123H9.42181Z" fill="white"/>
</svg>
