<svg width="15" height="14" viewBox="0 0 15 14" fill="none" xmlns="http://www.w3.org/2000/svg">
<path d="M14.0016 4.2154C14.0029 3.36419 13.6703 2.54643 13.0752 1.9378C12.5685 1.41964 11.8968 1.09463 11.176 1.01882C10.4552 0.943024 9.73063 1.1212 9.1272 1.5226L9.108 1.5346C8.59953 1.88011 8.20062 2.36398 7.9584 2.929C7.90662 3.05039 7.80886 3.14632 7.68651 3.1958C7.56417 3.24527 7.4272 3.24427 7.3056 3.193C7.18624 3.14323 7.09136 3.04835 7.0416 2.929C6.79607 2.35711 6.39011 1.86861 5.8728 1.5226C5.36334 1.1826 4.76449 1.00136 4.152 1.0018L4.0896 0.999396C3.27165 1.01708 2.49303 1.35385 1.92 1.9378C1.32842 2.53859 0.997322 3.34824 0.9984 4.1914V4.249C1.0392 6.7618 3.612 9.0418 5.5968 10.7986C6.2715 11.364 6.90735 11.9741 7.5 12.625C8.08915 11.9717 8.72265 11.3599 9.396 10.7938C11.376 9.0346 13.9464 6.7474 14.0016 4.2154ZM13.7856 1.2394C14.5655 2.03344 15.0017 3.10242 15 4.2154L14.9976 4.225C14.94 7.1986 12.1824 9.6514 10.0608 11.5402C9.06 12.4306 8.2104 13.1866 7.9464 13.7194C7.8984 13.819 7.81802 13.8994 7.7184 13.9474C7.65984 13.9764 7.59611 13.9935 7.53089 13.9977C7.46568 14.0019 7.40028 13.9932 7.33847 13.972C7.27665 13.9508 7.21965 13.9176 7.17076 13.8742C7.12186 13.8308 7.08204 13.7782 7.0536 13.7194C6.7896 13.1866 5.9376 12.433 4.9344 11.545C2.8104 9.661 0.0528 7.2202 0.0024 4.2706L0 4.1914C0.000491842 3.08685 0.434893 2.0267 1.2096 1.2394C1.96718 0.468188 2.99675 0.0244804 4.0776 0.00339578L4.152 0.000995781C4.96102 0.000926049 5.75192 0.240618 6.4248 0.689796C6.43252 0.965239 6.54681 1.22694 6.74361 1.41981C6.9404 1.61269 7.20435 1.72168 7.4799 1.72386C7.75544 1.72604 8.02108 1.62123 8.2209 1.43149C8.42072 1.24175 8.53913 0.981882 8.5512 0.706596L8.5752 0.689796C9.37131 0.1589 10.328 -0.076776 11.2797 0.0236009C12.2313 0.123978 13.1178 0.554084 13.7856 1.2394Z" fill="white"/>
</svg>
