<svg width="16" height="14" viewBox="0 0 16 14" fill="none" xmlns="http://www.w3.org/2000/svg">
<path d="M4.55903 3.28284C4.56115 2.84543 4.65271 2.41307 4.82811 2.01235C5.0035 1.61163 5.259 1.25102 5.57892 0.952707C6.23653 0.340415 7.10171 0 8.00024 0C8.89877 0 9.76394 0.340415 10.4216 0.952707C10.7431 1.24946 10.9998 1.60959 11.1753 2.01042C11.3508 2.41124 11.4414 2.84407 11.4414 3.28164C11.4414 3.71921 11.3508 4.15204 11.1753 4.55287C10.9998 4.95369 10.7431 5.31382 10.4216 5.61057C9.76394 6.22287 8.89877 6.56328 8.00024 6.56328C7.10171 6.56328 6.23653 6.22287 5.57892 5.61057C5.25905 5.31273 5.00355 4.95255 4.82815 4.55222C4.65275 4.1519 4.56116 3.7199 4.55903 3.28284ZM6.26284 1.67742C6.04106 1.88192 5.86406 2.13015 5.74299 2.40646C5.62193 2.68277 5.55943 2.98117 5.55943 3.28284C5.55943 3.58451 5.62193 3.88291 5.74299 4.15922C5.86406 4.43553 6.04106 4.68376 6.26284 4.88826C6.73748 5.32204 7.35723 5.56258 8.00024 5.56258C8.64325 5.56258 9.26299 5.32204 9.73764 4.88826C9.95942 4.68376 10.1364 4.43553 10.2575 4.15922C10.3785 3.88291 10.4411 3.58451 10.4411 3.28284C10.4411 2.98117 10.3785 2.68277 10.2575 2.40646C10.1364 2.13015 9.95942 1.88192 9.73764 1.67742C9.26381 1.242 8.64375 1.00037 8.00024 1.00037C7.35673 1.00037 6.73667 1.242 6.26284 1.67742ZM1.00024 13.4985C1.00024 13.6309 0.947651 13.7578 0.854043 13.8514C0.760436 13.945 0.633477 13.9976 0.501096 13.9976C0.368715 13.9976 0.241756 13.945 0.148149 13.8514C0.0545412 13.7578 0.00195313 13.6309 0.00195312 13.4985C0.00195312 11.6483 0.911449 9.98048 2.38248 8.77821L2.41128 8.75422C4.0231 7.52805 5.9935 6.8661 8.0187 6.87044C10.0439 6.87478 12.0114 7.54515 13.618 8.77821C15.089 9.98048 15.9985 11.6483 15.9985 13.4985C15.9985 13.6309 15.9459 13.7578 15.8523 13.8514C15.7587 13.945 15.6318 13.9976 15.4994 13.9976C15.367 13.9976 15.24 13.945 15.1464 13.8514C15.0528 13.7578 15.0002 13.6309 15.0002 13.4985C15.0002 11.965 14.2299 10.5684 12.9869 9.55092C11.5576 8.46292 9.81173 7.87216 8.01546 7.86869C6.2192 7.86523 4.47107 8.44925 3.03761 9.53173L3.01361 9.55092C1.77055 10.5684 1.00024 11.965 1.00024 13.4985Z" fill="white"/>
</svg>
