<svg width="20" height="28" viewBox="0 0 20 28" fill="none" xmlns="http://www.w3.org/2000/svg">
<path d="M10 4C4.48 4 0 8.48 0 14C0 19.52 4.48 24 10 24H16.16V21.88C18.5 20.04 20 17.2 20 14C20 8.48 15.52 4 10 4ZM6.4 14.9C5.9 14.9 5.5 14.5 5.5 14C5.5 13.5 5.9 13.1 6.4 13.1C6.9 13.1 7.3 13.5 7.3 14C7.3 14.5 6.9 14.9 6.4 14.9ZM10 14.9C9.5 14.9 9.1 14.5 9.1 14C9.1 13.5 9.5 13.1 10 13.1C10.5 13.1 10.9 13.5 10.9 14C10.9 14.5 10.5 14.9 10 14.9ZM13.6 14.9C13.1 14.9 12.7 14.5 12.7 14C12.7 13.5 13.1 13.1 13.6 13.1C14.1 13.1 14.5 13.5 14.5 14C14.5 14.5 14.1 14.9 13.6 14.9Z" fill="#161616"/>
</svg>
