<svg width="510" height="180" viewBox="0 0 510 180" fill="none" xmlns="http://www.w3.org/2000/svg">
<mask id="mask0_203_1966" style="mask-type:alpha" maskUnits="userSpaceOnUse" x="-14" y="-14" width="537" height="208">
<path d="M-13.5 -13.5H522.6V193.5H-13.5V-13.5Z" fill="black"/>
</mask>
<g mask="url(#mask0_203_1966)">
<path d="M45.0533 142.25C38.2533 142.25 32.0533 140.8 26.4533 137.9C20.9533 135 16.5533 130.85 13.2533 125.45C10.0533 120.05 8.45334 113.65 8.45334 106.25C8.45334 98.25 10.2533 91.45 13.8533 85.85C17.4533 80.25 22.2033 76 28.1033 73.1C34.1033 70.2 40.5033 68.75 47.3033 68.75C56.5033 68.75 63.4533 71.25 68.1533 76.25C72.9533 81.15 75.3533 87.6 75.3533 95.6L31.1033 101.15C31.7033 109.65 34.2033 115.75 38.6033 119.45C43.0033 123.15 48.1033 125 53.9033 125C56.8033 125 60.1033 124.5 63.8033 123.5C67.5033 122.4 70.8533 120.45 73.8533 117.65L76.2533 120.05C73.4533 126.75 69.6033 132.15 64.7033 136.25C59.9033 140.25 53.3533 142.25 45.0533 142.25ZM42.8033 75.2C39.4033 75.2 36.6533 77 34.5533 80.6C32.4533 84.1 31.2533 88.95 30.9533 95.15L52.7033 92.45C52.5033 87.75 51.6533 83.7 50.1533 80.3C48.7533 76.9 46.3033 75.2 42.8033 75.2ZM121.839 123.5C121.839 127.2 122.089 130 122.589 131.9C123.089 133.7 123.989 134.9 125.289 135.5C126.589 136.1 128.439 136.45 130.839 136.55V140H92.5893V136.55C94.2893 136.45 95.6393 136.1 96.6393 135.5C97.6393 134.9 98.3393 133.7 98.7393 131.9C99.1393 130 99.3393 127.2 99.3393 123.5V42.65C99.3393 41.15 99.0393 40.15 98.4393 39.65C97.9393 39.15 97.1393 38.9 96.0393 38.9C95.2393 38.9 94.3393 39 93.3393 39.2C92.4393 39.4 91.4393 39.7 90.3393 40.1L88.8393 36.65L121.539 21.5L122.439 22.4C122.339 23.9 122.189 26.25 121.989 29.45C121.889 32.55 121.839 36.5 121.839 41.3V123.5ZM203.954 21.5C204.354 23.7 204.604 26.3 204.704 29.3C204.904 32.3 204.904 35.3 204.704 38.3C204.604 41.2 204.354 43.8 203.954 46.1H200.504C199.504 39.9 198.104 35.7 196.304 33.5C194.504 31.2 192.304 30.05 189.704 30.05C186.004 30.05 183.054 32.2 180.854 36.5C178.754 40.8 177.704 48.15 177.704 58.55V71H197.204V78.95H183.704C179.704 78.95 177.704 80.95 177.704 84.95V123.5C177.704 127.2 177.954 130 178.454 131.9C179.054 133.7 180.204 134.9 181.904 135.5C183.704 136.1 186.304 136.45 189.704 136.55V140H148.454V136.55C150.154 136.45 151.504 136.1 152.504 135.5C153.504 134.9 154.204 133.7 154.604 131.9C155.004 130 155.204 127.2 155.204 123.5V78.95H146.204V71H155.204V63.8C155.204 54 157.354 45.8 161.654 39.2C165.954 32.6 171.754 27.8 179.054 24.8C186.454 21.7 194.754 20.6 203.954 21.5ZM207.056 140V136.55C208.756 136.45 210.106 136.1 211.106 135.5C212.106 134.9 212.806 133.7 213.206 131.9C213.606 130 213.806 127.2 213.806 123.5V89C213.806 87.5 213.506 86.5 212.906 86C212.406 85.5 211.606 85.25 210.506 85.25C209.306 85.25 207.906 85.45 206.306 85.85L204.806 82.4L236.006 67.85L236.906 68.75C236.706 69.65 236.456 71.6 236.156 74.6C235.956 77.6 235.856 81 235.856 84.8H236.156C239.856 79.2 244.006 75.15 248.606 72.65C253.306 70.15 258.356 69.1 263.756 69.5C264.556 78.2 264.556 86.95 263.756 95.75H260.306C259.606 91.25 258.256 88.4 256.256 87.2C254.256 86 252.156 85.4 249.956 85.4C247.456 85.4 245.106 85.75 242.906 86.45C240.706 87.05 238.506 88.25 236.306 90.05V123.5C236.306 127.2 236.556 130 237.056 131.9C237.556 133.7 238.556 134.9 240.056 135.5C241.656 136.1 243.906 136.45 246.806 136.55V140H207.056ZM307.526 123.5C307.526 127.2 307.776 130 308.276 131.9C308.776 133.7 309.676 134.9 310.976 135.5C312.276 136.1 314.126 136.45 316.526 136.55V140H278.276V136.55C279.976 136.45 281.326 136.1 282.326 135.5C283.326 134.9 284.026 133.7 284.426 131.9C284.826 130 285.026 127.2 285.026 123.5V89C285.026 87.5 284.726 86.5 284.126 86C283.626 85.5 282.826 85.25 281.726 85.25C280.926 85.25 280.026 85.35 279.026 85.55C278.126 85.75 277.126 86.05 276.026 86.45L274.526 83L307.226 67.85L308.126 68.75C308.026 70.25 307.876 72.6 307.676 75.8C307.576 78.9 307.526 82.85 307.526 87.65V123.5ZM297.026 60.5C293.326 60.5 290.226 59.25 287.726 56.75C285.226 54.15 283.976 51.1 283.976 47.6C283.976 44.1 285.226 41.05 287.726 38.45C290.226 35.85 293.326 34.55 297.026 34.55C300.626 34.55 303.676 35.85 306.176 38.45C308.676 41.05 309.926 44.1 309.926 47.6C309.926 51.1 308.676 54.15 306.176 56.75C303.676 59.25 300.626 60.5 297.026 60.5ZM413.037 125.15L414.537 128.6L383.487 143.15L382.587 142.25C382.787 141.35 382.987 139.45 383.187 136.55C383.387 133.65 383.487 130.7 383.487 127.7H383.187C381.287 131.8 378.237 135.25 374.037 138.05C369.937 140.85 364.987 142.25 359.187 142.25C354.387 142.25 349.937 140.9 345.837 138.2C341.737 135.4 338.387 131.45 335.787 126.35C333.287 121.15 332.037 115 332.037 107.9C332.037 100.7 333.287 94.65 335.787 89.75C338.287 84.75 341.537 80.7 345.537 77.6C349.637 74.5 354.087 72.25 358.887 70.85C363.687 69.45 368.387 68.75 372.987 68.75C374.987 68.75 376.837 68.8 378.537 68.9C380.237 69 381.737 69.15 383.037 69.35V42.65C383.037 41.15 382.737 40.15 382.137 39.65C381.637 39.15 380.837 38.9 379.737 38.9C378.037 38.9 376.137 39.3 374.037 40.1L372.537 36.65L405.237 21.5L406.137 22.4C406.037 23.9 405.887 26.25 405.687 29.45C405.587 32.55 405.537 36.5 405.537 41.3V122C405.537 123.5 405.837 124.5 406.437 125C407.037 125.5 407.837 125.75 408.837 125.75C410.037 125.75 411.437 125.55 413.037 125.15ZM371.637 127.25C373.537 127.25 375.487 126.85 377.487 126.05C379.587 125.25 381.437 124.05 383.037 122.45V82.55C380.237 78.15 376.437 75.95 371.637 75.95C367.237 75.95 363.537 78.3 360.537 83C357.537 87.6 356.037 93.75 356.037 101.45C356.037 110.15 357.537 116.65 360.537 120.95C363.637 125.15 367.337 127.25 371.637 127.25ZM447.318 142.25C441.818 142.25 437.718 140.6 435.018 137.3C432.418 134 431.118 130.2 431.118 125.9C431.118 119.3 434.118 113.95 440.118 109.85C446.218 105.75 455.618 102 468.318 98.6V90.65C468.318 85.95 467.318 82.6 465.318 80.6C463.418 78.5 460.718 77.45 457.218 77.45C452.418 77.45 448.418 79.25 445.218 82.85C442.118 86.45 439.968 91.3 438.768 97.4H435.318V75.8C438.718 74.1 443.118 72.5 448.518 71C454.018 69.5 459.968 68.75 466.368 68.75C483.668 68.75 492.318 75.45 492.318 88.85V121.55C492.318 123.85 492.618 125.65 493.218 126.95C493.818 128.15 495.018 128.75 496.818 128.75C497.818 128.75 498.918 128.55 500.118 128.15C501.418 127.65 502.768 126.75 504.168 125.45L506.568 127.85C504.368 132.45 501.468 135.9 497.868 138.2C494.268 140.4 490.168 141.5 485.568 141.5C480.668 141.5 476.868 140.55 474.168 138.65C471.568 136.65 469.718 133.8 468.618 130.1H468.318C466.018 134.1 462.968 137.15 459.168 139.25C455.368 141.25 451.418 142.25 447.318 142.25ZM459.018 128.75C461.018 128.75 462.768 128.3 464.268 127.4C465.868 126.4 467.218 125.3 468.318 124.1V104.6C463.718 105.9 460.218 107.6 457.818 109.7C455.518 111.8 453.968 113.9 453.168 116C452.468 118.1 452.118 119.85 452.118 121.25C452.118 123.35 452.718 125.15 453.918 126.65C455.118 128.05 456.818 128.75 459.018 128.75Z" fill="white"/>
</g>
</svg>
