<svg width="10" height="21" viewBox="0 0 10 21" fill="none" xmlns="http://www.w3.org/2000/svg">
<path d="M9.05265 7.79402C9.15697 7.69007 9.29832 7.63182 9.44561 7.63207C9.59289 7.63232 9.73404 7.69105 9.83801 7.79535C9.94198 7.89965 10.0002 8.04096 10 8.18821C9.99975 8.33546 9.941 8.47658 9.83668 8.58052L5.39119 13.0223C5.33998 13.0742 5.27895 13.1155 5.21165 13.1436C5.14435 13.1718 5.07213 13.1863 4.99917 13.1863C4.92622 13.1863 4.85399 13.1718 4.7867 13.1436C4.7194 13.1155 4.65837 13.0742 4.60716 13.0223L0.161666 8.58052C0.0583411 8.47602 0.000582638 8.33488 0.00100794 8.18794C0.00143323 8.04099 0.0600089 7.90019 0.163938 7.79629C0.267868 7.69238 0.408704 7.63382 0.555681 7.6334C0.70266 7.63297 0.843832 7.69072 0.948361 7.79402L4.99917 11.8439L9.05265 7.79402Z" fill="#262626"/>
</svg>
