<svg width="11" height="21" viewBox="0 0 11 21" fill="none" xmlns="http://www.w3.org/2000/svg">
<path d="M9.13192 7.86205C9.23715 7.7572 9.37973 7.69844 9.5283 7.69869C9.67687 7.69894 9.81926 7.75819 9.92413 7.86339C10.029 7.9686 10.0878 8.11115 10.0875 8.25969C10.0873 8.40822 10.028 8.55057 9.92279 8.65542L5.43849 13.136C5.38683 13.1883 5.32527 13.23 5.25739 13.2584C5.1895 13.2868 5.11665 13.3014 5.04306 13.3014C4.96947 13.3014 4.89661 13.2868 4.82873 13.2584C4.76084 13.23 4.69928 13.1883 4.64762 13.136L0.163324 8.65542C0.0590966 8.55 0.000833972 8.40763 0.00126298 8.25941C0.00169199 8.11118 0.0607789 7.96915 0.165615 7.86434C0.270452 7.75953 0.412518 7.70046 0.560778 7.70003C0.709039 7.6996 0.851444 7.75785 0.956886 7.86205L5.04306 11.9472L9.13192 7.86205Z" fill="#262626"/>
</svg>
