<svg width="15" height="14" viewBox="0 0 15 14" fill="none" xmlns="http://www.w3.org/2000/svg">
<path d="M11.865 5.92721C11.8669 7.32826 11.3708 8.68438 10.4651 9.75337L13.8611 13.1493C13.9498 13.2443 13.9982 13.37 13.996 13.5C13.9938 13.6299 13.9412 13.754 13.8493 13.8459C13.7574 13.9378 13.6334 13.9904 13.5034 13.9926C13.3735 13.9948 13.2477 13.9464 13.1528 13.8576L9.75684 10.4598C8.58932 11.4491 7.08434 11.9484 5.55701 11.8532C4.02967 11.7579 2.5984 11.0755 1.56285 9.94876C0.527306 8.82205 -0.0322144 7.33841 0.00143428 5.80847C0.035083 4.27854 0.659292 2.82093 1.74337 1.74084L1.7723 1.71191C2.60452 0.891622 3.66061 0.3356 4.80788 0.113712C5.95514 -0.108176 7.1424 0.0139677 8.22046 0.464795C9.29851 0.915623 10.2193 1.67502 10.867 2.64757C11.5148 3.62011 11.8607 4.76242 11.8612 5.93095L11.865 5.92721ZM9.42181 9.41182C10.3331 8.48748 10.843 7.24093 10.8407 5.94289C10.8383 4.64485 10.324 3.40014 9.40934 2.47909C8.49469 1.55805 7.25359 1.03505 5.95559 1.02367C4.6576 1.0123 3.40753 1.51347 2.47687 2.41835L2.45541 2.44261C1.53668 3.36767 1.02203 4.61915 1.02418 5.92291C1.02633 7.22668 1.54511 8.47645 2.46689 9.39847C3.38867 10.3205 4.6383 10.8396 5.94206 10.8421C7.24583 10.8446 8.49744 10.3303 9.42275 9.41182H9.42181Z" fill="#13161A"/>
</svg>
